<?xml version="1.0" standalone="no"?>
<!DOCTYPE svg PUBLIC "-//W3C//DTD SVG 20010904//EN"
 "http://www.w3.org/TR/2001/REC-SVG-20010904/DTD/svg10.dtd">
<svg version="1.0" xmlns="http://www.w3.org/2000/svg"
 width="16.000000pt" height="16.000000pt" viewBox="0 0 16.000000 16.000000"
 preserveAspectRatio="xMidYMid meet">
<metadata>
Created by potrace 1.11, written by Peter Selinger 2001-2013
</metadata>
<g transform="translate(0.000000,16.000000) scale(0.002286,-0.002286)"
fill="#000000" stroke="none">
<path d="M0 3500 l0 -3500 1750 0 1750 0 0 758 c0 774 3 851 41 1037 77 381
346 956 681 1457 32 48 58 89 58 91 0 3 -44 30 -97 62 -183 108 -287 206 -346
325 -28 57 -32 74 -32 146 0 45 3 85 7 89 3 4 38 -12 76 -35 145 -85 360 -167
561 -210 167 -37 461 -72 461 -56 0 18 -64 98 -124 154 -138 129 -467 323
-739 437 -37 16 -64 31 -60 35 4 4 28 15 52 24 209 81 433 309 539 549 l21 47
-62 0 c-193 0 -550 -117 -790 -258 -48 -28 -87 -48 -87 -44 0 4 -5 84 -10 177
-16 277 -54 492 -119 677 l-31 86 0 726 0 726 -1750 0 -1750 0 0 -3500z m3513
1843 c45 -205 58 -279 71 -399 9 -78 16 -207 16 -287 0 -81 3 -147 6 -147 3 0
45 24 93 54 179 111 378 198 563 246 106 28 239 52 246 45 7 -7 -60 -122 -108
-186 -127 -170 -293 -284 -508 -351 -35 -11 -61 -23 -56 -28 5 -4 59 -28 120
-53 139 -57 410 -192 529 -264 106 -65 211 -142 280 -207 l50 -47 -65 6 c-324
30 -639 130 -880 278 l-75 46 -23 -49 c-42 -89 -28 -221 34 -327 57 -98 208
-235 347 -313 l58 -32 -18 -27 c-314 -475 -566 -984 -664 -1343 -13 -49 -26
-88 -29 -88 -3 0 -16 39 -29 88 -98 359 -350 868 -664 1343 l-18 27 58 32
c139 78 290 215 347 313 62 106 76 238 34 327 l-23 48 -95 -57 c-239 -143
-545 -239 -855 -265 l-70 -7 50 47 c70 66 174 142 280 207 119 72 390 207 529
264 61 25 115 49 119 53 5 4 -15 15 -45 25 -228 72 -378 175 -517 353 -42 55
-116 180 -110 186 8 8 140 -16 247 -44 185 -48 384 -135 563 -246 48 -30 90
-54 93 -54 3 0 6 66 6 147 0 80 7 209 16 287 13 120 26 194 71 399 3 15 9 27
13 27 4 0 10 -12 13 -27z"/>
<path d="M3312 3467 l-184 -92 5 -45 c11 -87 80 -210 203 -355 78 -94 155
-175 165 -175 11 0 166 178 231 264 78 105 128 209 128 269 l0 47 -180 90
c-99 49 -181 90 -182 89 -2 0 -86 -42 -186 -92z m498 -147 c-1 -55 -72 -174
-184 -308 -41 -48 -86 -98 -100 -111 l-26 -24 0 311 0 312 155 -77 c139 -70
155 -80 155 -103z"/>
</g>
</svg>
