<svg xmlns="http://www.w3.org/2000/svg" width="2000" height="2000" viewBox="0 0 2000 2000">
  <metadata><?xpacket begin="﻿" id="W5M0MpCehiHzreSzNTczkc9d"?>
<x:xmpmeta xmlns:x="adobe:ns:meta/" x:xmptk="Adobe XMP Core 5.6-c138 79.159824, 2016/09/14-01:09:01        ">
   <rdf:RDF xmlns:rdf="http://www.w3.org/1999/02/22-rdf-syntax-ns#">
      <rdf:Description rdf:about=""
            xmlns:xmp="http://ns.adobe.com/xap/1.0/">
         <xmp:CreatorTool>Adobe Photoshop CS6 (Windows)</xmp:CreatorTool>
      </rdf:Description>
   </rdf:RDF>
</x:xmpmeta>
                                                                                                    
                                                                                                    
                                                                                                    
                                                                                                    
                                                                                                    
                                                                                                    
                                                                                                    
                                                                                                    
                                                                                                    
                                                                                                    
                                                                                                    
                                                                                                    
                                                                                                    
                                                                                                    
                                                                                                    
                                                                                                    
                                                                                                    
                                                                                                    
                                                                                                    
                                                                                                    
                           
<?xpacket end="w"?></metadata>
<defs>
    <style>
      .cls-1 {
        fill-rule: evenodd;
      }
    </style>
  </defs>
  <path class="cls-1" d="M1068,510c0.63-5.635,5.61-16.874,10-19,5.76-3.885,14.59-2.785,22-5,8.41-2.514,24-4.023,32-8,2.52-1.252,4.82-4.763,8-6l16-3,12-13a288.835,288.835,0,0,1,28-24q3.495-4,7-8c40.31-30.506,74.44-68.442,115-99,14.22-10.713,26.54-24.113,41-35,5.43-4.091,8.75-10.576,16-13v3c-6.41,5.6-8.92,17.132-13,25-6.32,12.17-26.03,46.463-21,67,1.05,4.277,3.28,7.336,4,12-3.82,2.244-8.03,4.741-9,10,4.97-.678,11.21-4.1,14-3,10.21,9.647,21.08,24.7,40,25,7.01-11.758,14.5-24.533,21-37,2.66-5.1,3.89-13.43,9-16,4.72-4.272,12.97-5.111,22-5,0.98,2.076,1.91,6.707,4,8,7.46-9.421,23.95-18.623,34-26,18.79-13.787,36.13-29.907,55-44,7.73-5.771,14.28-14.21,22-20,46.15-34.627,85.2-77.389,131-112l9-10c8.96-8.952,17.23-16.666,25-27,6.64-8.828,16.37-16.183,23-25,4.4-5.847,13.4-20.492,20-23v3c-7.32,7.174-13.42,19.436-19,28-1.6,2.457-5.95,9.886-5,11,0.71,0.566.04,1.442,2,1v-1c6.01-10.137,14.07-23.711,22-35,5.74-8.166,13.25-15.886,18-25h2v4c-10.71,12.31-11.69,38.82-16,58-2.31,10.283,4.83,23.729,1,31-5.1,9.668-12.32,19.713-18,29-2.92,4.775-3.81,9.706-7,14q-4.995,4.5-10,9c-10.52,13.887-23.49,25.094-34,39q-6.495,6-13,12a171.677,171.677,0,0,1-15,18c-4.07,4.075-10.85,7.178-13,13h2c3.97-3.086,12.29-5.233,18-6v2h-1c-5.35,4.454-15.57,10.588-23,12-1.67-1.938-1.44-1.668-5-2-2,3.2-5.11,6.673-9,8v-3a18.334,18.334,0,0,0,3-7,14.134,14.134,0,0,0-4-1c-4.81,3.313-11.5,3.675-16,7q-5.505,6-11,12c-9.9,7.491-18.33,16.711-28,24-6.73,5.071-19.33,11.3-23,19h9c1.18,0.8,1.68.773,4,1,7.1-8.531,25.04-15.715,35-22,27.49-17.351,55.22-37.374,85-52v2c-11.11,10.785-18.25,24.77-27,38-14.12,21.35-29.54,42.979-43,65-5.68,9.3-7.98,21.989-14,31-3.7,5.53-32.79,23.534-40,28-4.86,3.008-14.18,5.18-17,10-4.14,7.081-4.28,15.109-8,22-9.15,16.94-20.65,33.755-32,49-7.11,9.545-19.56,19.958-32,24-12.59,4.089-29.57,3.244-40,10-11.33,7.343-27.29,37.217-33,51-10.74-2.519-44.13-10.127-49,3-5.03,8.084-.27,23.913-2,32-1.34,6.262-6.97,15.008-9,22-2.49,8.566-.94,20.113-3,29-3.47,14.958,8.44,35.715-8,36-1.42.961-3.27,0.976-6,1v3c19.98,13.61,37.49,49.771,48,74,4.03,9.286,9.52,18.07,10,31h-1c-13.66-14.939-24.8-31.375-37-48-7.54-10.285-17.4-19.752-25-30-5.09-6.864-16.51-26.2-24-29a76.186,76.186,0,0,0-10,0c-0.75,1.073-.6.946-1,3,9,9.638,13.62,24.952,19,38,8.62,3.59,34.02,11.37,37,19,0.88,1.295.89,2.467,1,5-2.99,1.363-18.85,7.785-20,10,5.2,5.206,19.89,29.274,22,37h-3c-3.79-6.209-26.28-34.213-33-35-5.65,3.87-13.93,3.622-21,6-13.95,4.7-29.49,10.335-43,17-6.55,3.23-6.27,13.726-14,16-6.08-4.088-19.13.736-24,2-8.65,2.248-40.09,5.661-43,11-0.67,3-1.33,6-2,9-1.01,2.774-3.07,4.541-2,7,5.82,3.631,17.23,1.738,24,4-0.63,1.754-.19.971-1,2-5.36,4.2-25.72,11.494-34,12v4c5.89,4.108,5.4,9.019,16,9,6.79-4.966,21.61-.76,29,0,0.67-3,1.33-6,2-9h2v1c4.62,5.974,7.56,18.759,8,28-18.15,11.066-36.11,51.9-30,84h-4c-9.39-7.46-23.48,5.45-31,1-4.42-2.12-8.56-9.85-11-14h-2c-5.65,8.19-16.91,16.42-26,21-3.63,1.83-13.27,2.53-15,6v23c9.54,4.4,16.71,11.49,25,17-2.19,4.94-3.12,10.4-3,19h1v1l13,3c-3.46,4.44-11.26,17.12-9,26,2.12,8.31,13.53,33.46,21,36v-1c12.93-12.94,19.83-42,20-68,9.32-3.12,25.77-1.08,37-1,6.22,6.66,17.42,12.07,29,13,3.44-3.35,7.74-4.31,12-7,12.52-7.9,25.33-16.57,38-25,29.65-19.74,57.8-41.43,87-62,11.3-7.963,21.85-17.589,33-26,4.8-3.62,6.86-9.507,14-11,6.54,4.9,37.11,11.776,47,14v6c-5.36,8.073-1.62,22.03-4,33-4.95,22.85-4.28,75.53,6,90,6.82,9.6,36.22,19.54,39,26q3.495,13.5,7,27h-1v1a236.049,236.049,0,0,0-46,5v2c-5.75,9.4-5.45,34.42-9,47-7.72,27.38-15.85,52.21-26,76-19.47,8.23-41.31,12.65-60,22-35.68,17.84-67.46,39.97-98,63-18.71,14.11-30.28,38.78-43,59-21.21,33.72-37.84,68.96-52,111-8.04,23.87-8.03,50.79-14,76-2.35,9.91.28,24.65,2,32,2.09,8.94-.13,15.21,2,24a168.375,168.375,0,0,1,5,36c-8.52,6.19-15.62,16.53-22,25-8.85,11.75-19.96,21.93-29,34-18.3,24.43-40.37,46.63-57,73-15.17,24.05-24.33,51.52-36,79-5.79,13.65-15.38,29.05-18,45-2.08-.37-1.92-0.24-3-1-5.688-7.62-7.078-18.79-11-28-8.781-20.63-16.844-42.7-27-63-18.9-37.77-43.851-67.78-68-100-12.522-16.71-28.267-31.14-41-48-5.8-7.68-15.748-9.5-16-23,3.4-5.35,1.232-17.56,3-25,9.433-39.72,4.207-86.36-6-122-4.16-14.53-5-26.75-10-40-18.383-48.74-44.965-92.34-74-131-4.041-5.38-10.549-9.91-16-14-17.155-12.87-34.485-27.32-53-39-18.714-11.8-39.872-22.13-61-31-11.226-4.71-31.349-7.04-40-14-4.893-5.42-5.9-13.72-9-21-12.849-30.16-19.278-67.57-27-104h-2c-10.56-7.11-33.128,1.03-44-6-0.8-1.02-.355-0.27-1-2,4.453-5.97,5.346-18.99,7-27,15.767-7.2,36.058-15.11,43-31,1.968-4.5.74-7.78,2-13,8.466-35.05-2.774-76.96-4-109h2c5.673-3.881,39.775-12.781,48-14,8.128,11.646,32.474,27.573,45,36,11.327,7.62,21.78,18.31,33,26,19.445,13.33,38.176,25.99,58,39,10.664,7,36.252,28.62,49,30,4.774-3.7,10.924-2.03,17-5,2.969-1.45,4.521-6.78,8-8h36c1.4,4.11,1.074,11.34,1,17,3.362,5.07,1.857,13.7,4,20,4.067,11.95,10.656,22.61,16,33h2c12.367-18.26,26.927-39.23,10-62a2.826,2.826,0,0,0,1-1c4.672,0,9.375-.84,12-3,1.96-2.98,1.129-11.28,1-16a8.912,8.912,0,0,1-3-3c0.922-.55,25-17,25-17v-23c-7.611-4.03-16.911-6.28-24-11-6.506-4.33-11.335-13.16-19-16-2.483,4.51-7.313,13.79-13,15-4.021-2.64-9.391-.4-15-2-1.165-.33-3.22-2.61-4-3-0.667-.33-1.333-0.67-2-1-3.8.26-6.27,3.6-12,4v-2c3.72-5.75.416-21.82-1-27-4.082-14.936-5.886-26.725-13-38-4.512-7.152-14.6-12.4-16-22,3.544-4.828,5.681-17.886,8-24,1.754,0.631.971,0.193,2,1,2.527,4.339-.573,7.1,6,8,7.381-5.777,23.91-.291,33,0,2.7-5.08,7.18-6.138,8-13-6.558-.1-34.158-10.343-36-14,6.847-1.117,19.768-.44,25-4,0.8-1.021.355-.274,1-2-3.384-3.816-3.434-14.647-8-17-5.751-2.964-11.518-.976-18-3-14.045-4.385-30.249-9.07-48-7-2.409-3.753-6.452-12.337-10-15-4.643-3.486-11.483-3.626-17-6-15.233-6.554-33.537-16.911-53-18-2.783,5.565-28.046,35.259-33,37v-3c3.743-3.078,21.421-32.482,23-38-7.979-1.284-19.685-3.6-20-13h-3c-5.8,10.029-28.722,42.273-38,47v-6l6-18c5.319-12.328,10.967-26.476,18-38,6-9.83,13.07-19.768,20-29,4.118-5.485,11.382-8.973,14-16h1v-1h-6c-1.69-1.142-4.9-1.066-8-1a6.1,6.1,0,0,0-2-2c4.644-13.616.747-55.565-3-67-1.822-5.559-6.847-12.863-8-18-0.825-3.676,2.231-11.586,1-17-1.128-4.96-1.983-12.2-3-17-12.353-7.967-34.529-4.286-49-1-2.041-7.808-7.3-12.922-11-19-4.781-7.859-6.765-16.465-12-24-2.537-3.652-11.667-9.479-16-11-17.9-6.284-36.489-5.192-50-15-18.386-13.347-38.193-48.1-50-69-3.161-5.6-2.636-12.242-6-18-2.816-4.82-12.144-6.992-17-10-12.334-7.64-25.261-16.164-37-25-5.034-3.789-13.575-28.833-18-36-8.277-13.407-18.619-26.722-27-40-6.386-10.117-11.192-20.216-18-30-5.4-7.767-20.064-21.962-22-31,10.577,1.777,31.92,18.267,41,24,17.86,11.276,35.678,22.029,53,33,8.485,5.374,19.233,8.9,26,16,2.29-1.064,9.531-1.715,11-4-6.532-2.227-9.994-8.276-15-12-10.1-7.511-18.978-15.435-29-23-12.191-9.2-17.615-22.412-37-25v1h-1c0.936,3.781,2.362,5.626,3,10h-2c-2.331-3.8-5.255-7.454-11-8-1.878,1.779-.793,1.848-3,1-8.139-2.012-14.508-7.657-22-11v-2h3c4.179,3.222,12.25,4.767,18,6v-1c-15.482-10.375-29.807-28.19-41-43l-12-11c-9.305-12.295-21.916-21.9-31-34-6.91-9.2-10.82-19.87-17-30-2.947-4.831-9.266-11.657-11-17-0.842-2.595,1.458-12.538,2-15,1.5-6.8-1.332-32.185-3-38-3.576-12.468-11.692-24.659-13-38h2v1c6.36,6.177,9.8,14.584,15,22,8.284,11.824,21.673,24.654,25,38,1.754-.631.971-0.193,2-1h1v-1h-1c-4.691-15.914-20.27-25.928-25-42h2c8.684,13.337,21.6,23.5,31,36,23.538,31.309,52.773,59.442,84,83,10.31,7.778,18.7,19.227,29,27,25.635,19.342,48.209,41.681,74,61,3.922,2.938,7.056,8.053,11,11,19.392,14.488,37.5,29.574,57,44,10.488,7.759,20.949,21.65,34,26-0.042-4.089-.06-5.187,2-7,4.666-3.78,18.861.5,23,4,6.947,7.814,14.233,27.211,20,37,4.482,7.609,3.6,15.959,16,16,11.194-8.683,26.342-12.932,33-26,4.779,1.173,8.382,3.232,14,4v-3c-3.506-2.125-8.038-5.246-9-10,5.71-5.9,5.118-25.271,2-34a387.7,387.7,0,0,0-21-48c-3.568-6.861-9.308-13.673-11-22h3c6.476,9.6,18.76,17.043,28,24,4.3,3.238,7.7,8.759,12,12,17.363,13.089,32.647,27.915,50,41,4.667,3.519,8.318,9.47,13,13,29.78,22.449,54.294,50.556,84,73,7.948,6,15.883,14.9,23,22l6,7,11,1c4.8,1.539,9.236,6.155,13,8l56,13c1.667,6.91,6.011,12.918,9,19h2c4.845-7.109,12.77-12.194,16-21,4.142-11.291-.838-30.229-7-35l-23-10-3-29c1.871-4.657,7.61-10.26,10-15,5.607-11.122,8.378-22.01,13-34,10.366-3.87,21.192-5.841,32-4,0.278-20.386-.489-39.04-5-56-2.031-7.634-4.7-15.512-5-25,6.363-3.794,10.844-10.869,16-16-0.119-39.52-32.7-60.46-54-80-0.183-4.1-1.383-6.368-2-9q0.5-11,1-22h-8a15.7,15.7,0,0,1-1-5q2.5-8,5-16c2.782-4.078,21.793-8.25,27-12,8.968-6.459,25.646-30.924,32-41,4.822-7.647,13.357-40.714,19-44v2c5.79,7.69,6.02,19.632,10,29,4.44,10.454,12.83,19.258,19,28,12.39,17.553,20.84,30.875,46,36,1.77,7.013,5.25,13.24,6,22a2.909,2.909,0,0,0-1,1c-4.55-.1-4.82-0.355-8,0,0.11,11.246,2.65,21.633-1,31-2.55,6.545-12.01,9.592-17,14-16.66,14.713-35.92,36.514-37,66,5.96,5.66,15.86,11.9,16,23-2.79,4.057-1.49,9.262-3,15-4.65,17.719-6.9,36.878-7,60h2c3.13-4.178,23.93-1.195,29,2,3.74,2.36,3.97,12.834,6,17,7.19,14.724,20.42,29.482,16,49-1.22,5.368.52,9.519-2,13q-11.505,5.5-23,11C1042.19,471,1049.4,506.5,1068,510ZM751,592c-4.108,3.969-12.364,5.736-14,12,5.033,6.919,4.812,17.25,8,26,6.3,17.293,11.35,36.719,19,53h1v-1c8.641-8.822,12.435-23.2,19-34,2.112-3.474,8.127-9.018,9-13,1.187-5.409-5.961-10.1-8-13C777.227,610.949,768.735,592.466,751,592Zm498,0c-2.03,1.936-4.63,2.283-7,4-8.52,6.177-13.96,16.162-20,25-3.22,4.716-7.81,6.792-9,14,4.2,3.5,5.01,9.183,8,14,6.75,10.884,14.25,22.065,20,34h1v-1c5.06-5.871,6.08-16.151,9-24,6.47-17.411,15.11-37.759,18-57C1262.2,597.581,1258.82,592.347,1249,592ZM185,622c11.672,0.569,22.489,5.581,32,9,17.238,6.2,35.626,9.31,53,14,21.013,5.672,44.555,4.163,65,9l24,1c9.034,2.042,20.65.66,31,3,17.733,4.01,40.307,4.855,60,5v2h-2c-4.729,3.525-11.629,2.966-18,5-11.073,3.535-25.93,4.167-39,7-6.193,1.343-15.051-.069-20,1-10.8,2.331-24.509-.151-33,2a51.606,51.606,0,0,1-3,7c-15.57-2.68-32.067-4.588-46-8l-37-1c-24.558-5.662-41.333-9.335-56-24-7.408-7.407-16.082-13.053-16-28A24.935,24.935,0,0,0,185,622Zm1632,0,6,1c2.14,3.393,3.05,4.685,3,11-12.08,14.158-19.56,28.018-38,36-15.29,6.616-33.87,4.875-53,9h-18c-14.16,3.462-31.2,4.9-47,8-0.19-4.6-.5-5.664-4-7-6.19-5.051-20.63.06-30-2-4.95-1.088-13.81.363-20-1-13.51-2.976-28.47-3.53-40-7-6.77-2.037-16.82-1.507-20-7,19.72,0.348,42.36-1.076,60-5,10.69-2.377,22.55-.915,32-3l23-1c29.31-6.837,62.93-7.6,89-16,14.46-4.657,28.69-7.658,42-12C1807.4,624.238,1812.86,624.9,1817,622Zm-259,65a593.029,593.029,0,0,1,61,24c7.98,3.659,15.46,3.179,24,6,20.81,6.871,45.87,11,68,17,10.99,2.978,20.73,2.2,31,6,6.77,2.509,12.55,7.38,18,11,5.03,3.337,10.81,3.817,13,10,2.77,3.437,1.49,7.049,1,12-2.68,2.228-2.91,5.121-5,8-5.39,7.425-38.64,36.89-47,40-10.97,4.082-28.14-.668-37-3-7.2-1.893-20.49-.586-24-6,5.62-2.724,10.99-7.652,12-15-7.56-5.821-13.22-16.314-19-24-3.52-4.686-9.48-8.334-13-13a241.447,241.447,0,0,0-47-47C1585.87,706.908,1561.51,695.517,1558,687ZM443,688h5v1h-1c-8.2,8.312-19.111,12.2-29,19-4.373,3.007-7.747,8.8-12,12a230.572,230.572,0,0,0-47,47c-6.635,8.816-23.77,21.314-26,33,2.58,2.6,10.817,11.061,12,14-15.03.835-40.381,12.24-57,8-9.858-2.515-14.139-9.842-21-15-14-10.523-39.227-25.123-34-48,10.15-5.724,19.343-14.92,31-19,19.346-6.772,39.79-5.915,60-12,17.126-5.157,36.9-9.115,53-15l10-2c6.123-3.016,14.4-7.205,21-10C418.154,696.7,434.682,694.1,443,688Zm326,86c1.242-11.67,4.312-22.99,9-32,1.921-3.692,7.516-7.8,6-12-1.439-5.737-17.648-28.979-23-30-3.67,8.049-8.27,14.161-15,19-1.455,1.046-3.793.763-5,2-4.443,4.553-8.207,18.373-11,25-1.572,3.73-7.183,15.361-5,19,2.858,1.738,7.866.03,12,1C747.8,768.535,756.838,773.694,769,774Zm468,0c10.4-.068,18.42-4.617,27-7,5.44-1.511,13.02-.264,18-2-4.03-12.366-9.45-36.3-17-44-3.27-3.333-8.67-4.714-12-8-3.74-3.69-5.13-11.649-11-13-3.02,5-21.88,28.86-20,32,1.68,6.356,6.64,10.439,9,16C1234.29,755.756,1235.8,764.92,1237,774Zm-235-71c-10.513,18.246-25.828,37.984-41,52q1,17,2,34c4.981,2.765,29.487,15.887,31,20,3.529,4.692-1,8.6,1,14,0.468,1.266,4.616,3.571,5,5,0.9,3.346-.488,2.918-2,4-1.889-1.572-2.066-1.889-4-1l-3,8c0.694,3.9,5.725,9.751,7,14,2.48,8.27-.7,24.175,6,28,0.96-8.33,1.39-19.132,4-28,1.24-4.212,6.38-10.15,7-14l-3-9-6,2c0.59-5.781,3.59-5.555,5-9-0.33-3-.67-6-1-9,0.29-1.476,1.59-5.065,2-7,11.27-6.007,31.43-10.69,31-28,2.26-3.347,2.96-21.075,1-24-1.86-5.438-6.97-6.941-10-11-6.87-9.2-14.55-17.883-21-27C1009.61,712.215,1007.9,705.184,1002,703ZM702,733c-10.971,12.53-21,25.365-31,39-4.7,6.4-12.519,11.507-15,20h2c8.37-8.118,29.5-9.938,36-18,2.776-3.586,2.836-8.614,5-13,4.268-8.65,12.255-16.592,14-27h-1v-1C708.6,733.729,705.26,734.138,702,733Zm73,44c8.025,1.878,21.425,16.215,31,9,0.8-1.021.355-.274,1-2l-16-38c-1.754.631-.971,0.193-2,1C783.262,753.006,775.945,767.263,775,777Zm456,0c-0.79-11.622-9.48-21.974-14-31-1.75.631-.97,0.193-2,1-2.88,3.1-16.07,37.214-15,39C1209.17,793.309,1223.31,778.932,1231,777Zm-284-8q-0.5,3-1,6c4.333,4.154,7.321,9.128,14,11v-2C955.117,779.988,953.825,770.811,947,769Zm109,0c-2.07,6.643-7.72,10.641-10,17h2v-1c6.14-1.857,11.8-6.9,12-15h-1v-1h-3ZM917,780c-5.214,8.36-34.343,40.19-43,43-0.828-3.245.49-1.528-2-3-3.893,6.723-10.964,13.141-12,22,2.944,3.165,18.177,29.824,19,34h-1c-7.328-5.561-21.208-8.828-31-11v8c-0.877,1.295-.894,2.467-1,5a18.324,18.324,0,0,0,6,1c1.838-1.238,5.7-1.089,9-1,3.748,6.408,8.418,11.844,12,19h2c2.3-3.107,7.076-7.638,11-9v1c5.942,6.441,12.133,19.307,15,28,1.814,5.5.6,10.121,3,15,1.717,3.484,5.923,6.885,8,10,1.874,2.811,8.891,15.122,8,16a26.448,26.448,0,0,1-22,11c-1.554-2.4-5.054-6.011-7-5h-1c1.347,4.4-1.346,9.48,0,14,3.713,12.472,16.264,22.03,23,32h1v-1c5.174-7.41,1.07-17.846,14-18,4.219,2.972,20.021,8.645,26,9,4.366-12.256,21.182-17.712,24-31-14.778-10.252-23.3-39-28-60-1.743-7.785,1.936-17.808,1-24-1.643-10.865-4.745-22.839-5-35,2.839-1.52,5.713-2.716,7-6,0.786-1.493-2.093-14.733-4-18l-11-10C932.923,809.06,923.537,782.624,917,780Zm170,0q-9,17.5-18,35c-7.84,11.371-15.18,9.781-16,31,5.21,2.2,7.19,3.1,7,11-8.65,14.023-.49,40.941-5,59-3.6,14.425-8.86,28.666-16,40-3.31,5.252-9.5,9.115-11,16,8.74,6.108,17.86,26.691,29,28,5.44-5.143,17.22-8.741,27-9,3.39,5.584,5.33,11.98,8,19h1v-1c7.64-4.92,29.26-32.912,22-45v-1c-5.07,2.973-5.32,5.9-14,6-4.85-3.835-13.49-5.994-15-13,4.63-4.992,14.79-20.525,17-27q1.995-9,4-18c3.36-7.582,9.19-15.136,13-23h2c2.28,3.681,5.94,8.058,11,9,3.98-8.906,7.38-19.335,21-19,1.29,0.877,2.47.894,5,1a18.3,18.3,0,0,0,1-6c-1.14-1.69-1.07-4.9-1-8h-2l-30,11v-3c3.05-2.323,20.42-30.014,19-35-1.53-5.377-8.92-12.808-12-18h-2c-0.83,3.245.49,1.528-2,3q-13.995-13.5-28-27C1098.15,790.908,1093.32,782.3,1087,780Zm528,168-33-7a196.315,196.315,0,0,0-5-42q-1.005-13.5-2-27c-3.11-13.654-5.52-28.907-9-42-1.7-6.386-6.1-32.368-4-34,3.43,2.454,8.58,2.563,12,5,4.75,3.383,7.54,10.231,11,15,9.1,12.546,19.56,24.428,29,37,4.98,6.633,16.05,10.729,18,20-2.45,1.032-4.7,1.616-6,4-3.19,4.92-1.36,12.291-3,19A350.325,350.325,0,0,0,1615,948ZM391,948a296.976,296.976,0,0,0-8-53c-1.624-6.611.3-14.244-3-19-2.914-2.525-4.916-1.168-6-6,14.159-9.571,33.609-35.7,44-50,7.1-9.775,11.585-22.544,28-23v2c-5.126,7.958-3.3,20.861-6,31-8.119,30.486-15.278,75.2-16,111h-2C417.218,944.284,397.789,947.12,391,948Zm569,50q-1.5,2.5-3,5h1c1.021-.8.274-0.35,2-1C960.518,999.794,961.128,1000.02,960,998Zm85,0c0.33,1.333.67,2.67,1,4h2C1047.11,999.316,1046.97,999.411,1045,998Zm79,253c-0.24-5.77-1.43-14.41,1-16,2.41,3.36,6.11,3.26,9,6,3.4,3.22,3.26,6.82,6,11,2.96,4.51,11.97,8.6,17,11-2.1,8.23-.05,6.63,2,14,0.98,3.52-2.26,9.72-3,12-1.03,3.21,1.58,2.35,0,4-1.58,2.51-2.86,3.94-6,5-1.68,1.34-3.14,1.64-6,2-0.55,15.35-15.55,24.45-30,26,0.56,4.91,7.03,18.07,6,19q-4.995,7.995-10,16c-0.5,2.83,3.12,4.27,2,9-3.96,16.79-17.43,42.91-26,57-8.54,14.04-15.92,30.87-26,44-2.89,3.77-9.32,4.92-12,9-5.66,8.61-6.76,19.38-12,28-11.59,19.08-26.03,40.51-36,60-6.813-4.86-9.5-13.75-14-21-8.381-13.52-17.55-27.72-25-42l-10-24c-3.354-4.92-10.574-6.9-14-12-15.379-22.87-27.414-47.85-39-74-2.845-6.42-7.953-13.46-10-21q0.5-6.495,1-13c-1.846-6.47-8.652-9.28-10-17,3.722-3.83,5.885-9.62,6-17-12.5-.77-23.193-8.36-28-17-1.168-2.1-.821-6.11-2-8-6.161-4.36-11.88-2.14-12-13-4.7-6.48-.334-15.77,2-21a8.912,8.912,0,0,1-3-3c15.512-8.87,19.58-19.86,34-29v10c-0.961,1.42-.976,3.27-1,6a18.3,18.3,0,0,0,6,1c4.709-10.25,18.927-27.95,20-38-3.836-2.03-12.279-4.74-14-9,2.151-1.57,3.8-4.44,3-6-2.931-2.96-7.793-6.57-12-8v1c-0.649.86-1.338,3.14-2,4v-2c-4.407-4.95-6.393-11.35-11-16h-2a9.6,9.6,0,0,1-3,5c2.184,11.72,7.317,22.17,12,32-5.168.47-9.981,5.58-11,10,0.881,1.72.889,1.28,0,3-1.768,5.37-20.23,21.78-25,19-4.3-2.81-8.781-7.18-14-9-4.747-1.66-10.317.8-11,0-1.45-2.29-.519-4.45-3-6-1.567,1.24-.51.64-2,0-6.852-5.04-10.2-14.83-15-22-14.379-21.48-31.339-46.13-39-71-1.038-3.37-4.71-4.7-6-9,7.061-4.03,10.821-10.2,12-20h-2c-4.735-3.38-14.021-5.68-21-6-7.259,6.98-27.7,10.52-28,23-2.013,2.76-3.975,13.01-3,15,7.651,5.39,15.971.92,24,0,1.723,12.39,13.024,17.04,18,26,3.818,6.87,4.724,14.58,9,21,5.332,8,12.9,16.81,17,26,6.061,13.6,10.624,28.49,16,38-8.346,3.21-6.158,18.29-5,26-9.355,4.76-16.94,11.23-31,12a18,18,0,0,0-3-4c-2.978,2.55-9.554,3.68-13,6-2.241-7.11-17.175-26-27-26-0.115,11.3,5.235,12.4,8,20-3.1-.42-2.383-0.71-5,0q1,7.5,2,15c3.711-.15,6.547-0.74,8,0h1c-1.51,4.31-1.992,9.1-2,15,9.277,4.82,31.062,2.12,44,2v-2c0.8-1.18.773-1.68,1-4-4.576-1.05-11-4.03-14-7,6.991-.95,11.3-5.93,18-7,2.322-.37,5.458,2.13,9,1,5.469-1.75,9.542-6.68,16-8,0.372,2.08.242,1.92,1,3,3.062,1.99,8.277-.11,12,2,4.453,2.52,6.89,8.31,12,11,0.406,4.32-.809,12.18,0,14,11.987,15.2,10.227,17.26,7,39,4.43,0.44,15.442,1.54,19,4,3.435,3.79,3.856,9.79,7,14,3.4,4.56,12.12,5.62,16,10,4.968,5.61,7.666,12.79,12,19,12.834,18.4,25.1,38.55,37,58,7.241,11.84,5.465,23.61,12,33,3.07,4.41,8.087,8.42,11,13,9.368,14.74,15.86,29.95,25,45,5.944,9.78,15.7,21.55,17,35-9.321,6.82-18.011,25.06-25,35-7.926,11.27-17.621,21.85-26,33-2.12,2.82-6.174,4.82-8,8-5.13,8.92-3.28,22.32-6,33-4.438,17.43-10.476,36.48-13,54h1c7.535-11.56,21.006-21.7,32-30,5.043-3.81,8.89-10.17,14-14,5.673-4.25,14.061-9.18,18-15,4.931-7.28,5.5-17.49,9-26,6.151-14.96,13.661-29.85,20-45,0.8,1.02.355,0.27,1,2,4.64,5.1,6.05,13.26,9,20,5.09,11.64,10.94,24.91,16,37q2.505,7.5,5,15c1.98,2.21,5.57,3.17,8,5,11.16,8.41,20.6,19.41,32,28,9.24,6.96,15.17,18.55,25,25v-2c-3.75-5.1-2.9-11.99-5-19-4.64-15.49-7.59-34.95-12-51q-1.005-7.5-2-15c-4.13-7.77-13.76-13.97-19-21-14.4-19.33-28.97-38.67-42-59,3.77-4.44,4.13-10.48,7-16,5.2-9.97,10.91-21.05,17-31,7.11-11.62,13.97-24.73,22-36,2.96-4.15,8.55-8.56,11-13,2.49-4.51.09-9.27,2-15,2.06-6.18,7.72-12.67,11-18,10.37-16.85,19.14-33.46,30-49,6.45-9.23,10.8-20.59,19-28,2.88-2.61,10-2.96,11-4,8.11-8.4.56-18.17,19-18l9-3c-4.85-11.64-3.73-26.94,2-35,2.12-2.98,3.8-1.22,5-6-2.88-4.24-.71-7.81,0-13h1c1.69,2.22,7.82-7.87,10-9q6.495-1.005,13-2c0.89-.8,1.12-3.12,2-4,3.58,3.28,11.01,7.7,16,9,3-.33,6-0.67,9-1,4.64,1,12.87,4.25,15,8h-1c-3.77,3.31-10.48,3.37-12,9,0.8,1.02.35,0.27,1,2a25.246,25.246,0,0,0,8,1c6.62-4.03,23.17,1.19,35-1,0.92-2.67,1.05-6.93,1-11-0.96-1.42-.98-3.27-1-6a81.88,81.88,0,0,0,9,0q0.495-7.5,1-15c-1.67.33-3.33,0.67-5,1v-2c4.99-3.38,8.98-9.58,9-18h-8c-5.89,9.17-14.81,16-20,26-11.29-9.78-13.22-.08-27-4-8.2-2.33-13.6-7.13-20-11,4.18-10.56-.45-19.47-4-27,1.67-1.33,3.33-2.67,5-4-2.65-3.26-2.11-.89-2-6,8.79-9.65,11.06-25.58,18-37,3.38-5.55,8.57-10.85,12-16,4.68-7.02,5.31-16.09,10-23q4.005-3.495,8-7c3.91-5.37,6.26-10.44,9-17,8.42,3.66,13.83,3.31,24,1v-4c-3.08-4.61-1.77-13.5-5-18-4.96-4.67-23.38-16.11-31-17-3.74,4.21-13.42,4.8-19,7q2.505,7.5,5,15c2.3,2.92,6.12,3.18,8,7-9.33,6.38-7.92,19.25-14,29-3.18,5.1-8.85,9.78-12,15-7.69,12.76-12.13,25.09-20,37-1.36,2.06-4.57,3.97-6,6-2.25,3.2-2.69,6.75-5,10-2.27,3.18-5.84,1.77-7,4-1.43,2.08-.63,3.56-3,5-8.95-5.65-19.14,7.85-26,9-3.9-3.48-9.83-4.87-14-8q-4.995-6-10-12c0.33-1.67.67-3.33,1-5-2.65-1.73-3.77-5.44-6-7-1.3-.91-4.02-0.28-5-1,5.81-6.24,11.13-21.84,12-32-1.62-1.25-2.01-2.1-3-4-1.75.63-.97,0.19-2,1-7.78,2.6-5.82,12.36-12,16a14.351,14.351,0,0,0-1-5c-3.97,2.32-10.74,5.95-12,11a21.05,21.05,0,0,1,4,6c-7.14,1.23-14.05,2.98-14,12C1106.87,1226.99,1113.77,1251.16,1124,1251Z"/>
</svg>
